# xmcd
#
# Track frame offsets:
#	150
#	12521
#	28766
#	36456
#	53425
#	67497
#	81707
#	92017
#	119212
#	127432
#	136293
#	148023
#	163070
#	180736
#	206371
#	223535
#	245464
#	272436
#	285504
#
# Disc length: 4001 seconds
#
# Revision: 1
# Processed by: cddbd v1.5.1PL0 Copyright (c) Steve Scherf et al.
# Submitted via: audiograbber 1.83.01
#
DISCID=320f9f13
DTITLE=DU - SAU - GE - Durch die Zeiten
DYEAR=1999
DGENRE=Ethnic
TTITLE0=Dantzlied aus dem Mittelalter
TTITLE1=Under der linden
TTITLE2=Der Gutzkauch
TTITLE3=Veris dulcis
TTITLE4=Tempus transit gelidum
TTITLE5=Es ist ein Schnee gefallen
TTITLE6=Karascha
TTITLE7=Ave Nobilis
TTITLE8=Menuett
TTITLE9=Kontratanz
TTITLE10=Hochzeitsstücke
TTITLE11=Kreistänze
TTITLE12=Hirtenruf - Hirtenweise - Hirtenstück - Pastorale
TTITLE13=Bretonisch I.
TTITLE14=Wiegenlied
TTITLE15=Leo
TTITLE16=Bretonisch II.
TTITLE17=Im  Aschenbecher
TTITLE18=Bretonisch III.
EXTD=Musiker:\nFranz Mettauer\nErnst Schmid\nChristine Mahringer
EXTT0=
EXTT1=
EXTT2=
EXTT3=
EXTT4=
EXTT5=
EXTT6=
EXTT7=
EXTT8=
EXTT9=
EXTT10=
EXTT11=
EXTT12=
EXTT13=
EXTT14=
EXTT15=
EXTT16=
EXTT17=
EXTT18=
PLAYORDER=
